{
  "source": "C:\\Users\\Peter\\Desktop\\stuff\\MIUN\\quantitative_research\\video_compression\\videos\\UVG\\Bosphorus_1920x1080_120fps_420_8bit_YUV.y4m",
  "output": "C:\\Users\\Peter\\Desktop\\stuff\\MIUN\\quantitative_research\\video_compression\\compressed_videos\\UVG\\vp9\\2\\Bosphorus_1920x1080_120fps_420_8bit_YUV_vp9.webm",
  "codec": "vp9",
  "ok": "[yuv4mpegpipe @ 000002a155365280] Stream #0: not enough frames to estimate rate; consider increasing probesize\nInput #0, yuv4mpegpipe, from 'C:\\Users\\Peter\\Desktop\\stuff\\MIUN\\quantitative_research\\video_compression\\videos\\UVG\\Bosphorus_1920x1080_120fps_420_8bit_YUV.y4m':\n  Duration: 00:00:05.00, start: 0.000000, bitrate: 2985989 kb/s\n  Stream #0:0: Video: rawvideo (I420 / 0x30323449), yuv420p(progressive), 1920x1080, 120 fps, 120 tbr, 120 tbn\n[out#0/webm @ 000002a155368e00] Codec AVOption b:a (set bitrate (in bits/s)) has not been used for any stream. The most likely reason is either wrong type (e.g. a video option with no video streams) or that it is a private option of some decoder which was not actually used for any stream.\nStream mapping:\n  Stream #0:0 -> #0:0 (rawvideo (native) -> vp9 (libvpx-vp9))\nPress [q] to stop, [?] for help\n[libvpx-vp9 @ 000002a15536bf80] v1.15.2-100-g40561f514\nOutput #0, webm, to 'C:\\Users\\Peter\\Desktop\\stuff\\MIUN\\quantitative_research\\video_compression\\compressed_videos\\UVG\\vp9\\2\\Bosphorus_1920x1080_120fps_420_8bit_YUV_vp9.webm':\n  Metadata:\n    encoder         : Lavf62.3.100\n  Stream #0:0: Video: vp9, yuv420p(tv, progressive), 1920x1080, q=2-31, 2000 kb/s, 120 fps, 1k tbn\n    Metadata:\n      encoder         : Lavc62.11.100 libvpx-vp9\n    Side data:\n      cpb: bitrate max/min/avg: 0/0/0 buffer size: 2000000 vbv_delay: N/A\nframe=    0 fps=0.0 q=0.0 size=       0KiB time=N/A bitrate=N/A speed=N/A elapsed=0:00:00.51    \nframe=    0 fps=0.0 q=0.0 size=       0KiB time=N/A bitrate=N/A speed=N/A elapsed=0:00:01.04    \nframe=    4 fps=2.5 q=55.0 size=       0KiB time=00:00:00.02 bitrate= 153.9kbits/s speed=0.0155x elapsed=0:00:01.61    \nframe=    7 fps=3.1 q=50.0 size=       0KiB time=00:00:00.05 bitrate=  66.0kbits/s speed=0.0256x elapsed=0:00:02.28    \nframe=    9 fps=3.1 q=50.0 size=       0KiB time=00:00:00.06 bitrate=  57.7kbits/s speed=0.0226x elapsed=0:00:02.94    \nframe=   12 fps=3.3 q=49.0 size=       0KiB time=00:00:00.10 bitrate=  38.5kbits/s speed=0.0272x elapsed=0:00:03.67    \nframe=   14 fps=3.3 q=49.0 size=       0KiB time=00:00:00.11 bitrate=  33.0kbits/s speed=0.0274x elapsed=0:00:04.25    \nframe=   15 fps=3.0 q=49.0 size=       0KiB time=00:00:00.12 bitrate=  30.8kbits/s speed=0.0252x elapsed=0:00:04.95    \nframe=   17 fps=3.0 q=49.0 size=       0KiB time=00:00:00.14 bitrate=  27.2kbits/s speed=0.0253x elapsed=0:00:05.60    \nframe=   20 fps=3.1 q=45.0 size=       0KiB time=00:00:00.15 bitrate=  24.3kbits/s speed=0.0248x elapsed=0:00:06.37    \nframe=   22 fps=3.1 q=45.0 size=       0KiB time=00:00:00.17 bitrate=  22.0kbits/s speed=0.0247x elapsed=0:00:07.09    \nframe=   24 fps=3.1 q=46.0 size=       0KiB time=00:00:00.19 bitrate=  20.1kbits/s speed=0.0247x elapsed=0:00:07.76    \nframe=   26 fps=3.1 q=45.0 size=       0KiB time=00:00:00.20 bitrate=  18.5kbits/s speed=0.0246x elapsed=0:00:08.48    \nframe=   28 fps=3.1 q=45.0 size=       0KiB time=00:00:00.22 bitrate=  17.1kbits/s speed=0.0249x elapsed=0:00:09.05    \nframe=   30 fps=3.1 q=46.0 size=       0KiB time=00:00:00.25 bitrate=  15.4kbits/s speed=0.0256x elapsed=0:00:09.76    \nframe=   32 fps=3.0 q=50.0 size=       0KiB time=00:00:00.26 bitrate=  14.4kbits/s speed=0.0252x elapsed=0:00:10.58    \nframe=   36 fps=3.2 q=46.0 size=       0KiB time=00:00:00.28 bitrate=  13.6kbits/s speed=0.0249x elapsed=0:00:11.36    \nframe=   38 fps=3.1 q=46.0 size=       0KiB time=00:00:00.30 bitrate=  12.5kbits/s speed=0.0253x elapsed=0:00:12.21    \nframe=   41 fps=3.2 q=51.0 size=       0KiB time=00:00:00.32 bitrate=  11.8kbits/s speed=0.0252x elapsed=0:00:12.87    \nframe=   43 fps=3.1 q=51.0 size=       0KiB time=00:00:00.35 bitrate=  11.0kbits/s speed=0.0256x elapsed=0:00:13.65    \nframe=   45 fps=3.1 q=51.0 size=       0KiB time=00:00:00.37 bitrate=  10.3kbits/s speed=0.0259x elapsed=0:00:14.48    \nframe=   47 fps=3.1 q=43.0 size=       0KiB time=00:00:00.38 bitrate=  10.0kbits/s speed=0.0252x elapsed=0:00:15.21    \nframe=   49 fps=3.0 q=44.0 size=       0KiB time=00:00:00.40 bitrate=   9.4kbits/s speed=0.0254x elapsed=0:00:16.09    \nframe=   51 fps=3.0 q=45.0 size=       0KiB time=00:00:00.41 bitrate=   9.2kbits/s speed=0.0248x elapsed=0:00:16.83    \nframe=   53 fps=3.0 q=46.0 size=       0KiB time=00:00:00.44 bitrate=   8.7kbits/s speed=0.0251x elapsed=0:00:17.56    \nframe=   55 fps=3.0 q=46.0 size=       0KiB time=00:00:00.45 bitrate=   8.4kbits/s speed=0.0251x elapsed=0:00:18.25    \nframe=   57 fps=3.0 q=46.0 size=       0KiB time=00:00:00.46 bitrate=   8.2kbits/s speed=0.0246x elapsed=0:00:18.95    \nframe=   59 fps=3.0 q=45.0 size=       0KiB time=00:00:00.48 bitrate=   8.0kbits/s speed=0.0244x elapsed=0:00:19.81    \nframe=   60 fps=2.9 q=49.0 size=       0KiB time=00:00:00.50 bitrate=   7.7kbits/s speed=0.0243x elapsed=0:00:20.58    \nframe=   63 fps=3.0 q=43.0 size=       0KiB time=00:00:00.51 bitrate=   7.4kbits/s speed=0.0243x elapsed=0:00:21.28    \nframe=   66 fps=3.0 q=47.0 size=       0KiB time=00:00:00.55 bitrate=   7.0kbits/s speed=0.0248x elapsed=0:00:22.18    \nframe=   69 fps=3.0 q=47.0 size=       0KiB time=00:00:00.56 bitrate=   6.8kbits/s speed=0.0249x elapsed=0:00:22.80    \nframe=   72 fps=3.0 q=52.0 size=       0KiB time=00:00:00.60 bitrate=   6.4kbits/s speed=0.0254x elapsed=0:00:23.60    \nframe=   75 fps=3.1 q=47.0 size=       0KiB time=00:00:00.62 bitrate=   6.2kbits/s speed=0.0258x elapsed=0:00:24.19    \nframe=   79 fps=3.2 q=45.0 size=       0KiB time=00:00:00.65 bitrate=   5.9kbits/s speed=0.0261x elapsed=0:00:24.86    \nframe=   82 fps=3.2 q=45.0 size=       0KiB time=00:00:00.68 bitrate=   5.6kbits/s speed=0.0267x elapsed=0:00:25.55    \nframe=   85 fps=3.3 q=50.0 size=       0KiB time=00:00:00.70 bitrate=   5.4kbits/s speed=0.0271x elapsed=0:00:26.13    \nframe=   88 fps=3.3 q=45.0 size=       0KiB time=00:00:00.72 bitrate=   5.3kbits/s speed=0.0271x elapsed=0:00:26.74    \nframe=   90 fps=3.3 q=45.0 size=       0KiB time=00:00:00.75 bitrate=   5.1kbits/s speed=0.0273x elapsed=0:00:27.43    \nframe=   93 fps=3.3 q=42.0 size=       0KiB time=00:00:00.77 bitrate=   5.0kbits/s speed=0.0276x elapsed=0:00:28.08    \nframe=   96 fps=3.3 q=46.0 size=       0KiB time=00:00:00.80 bitrate=   4.8kbits/s speed=0.0278x elapsed=0:00:28.73    \nframe=  100 fps=3.4 q=50.0 size=       0KiB time=00:00:00.82 bitrate=   4.7kbits/s speed=0.028x elapsed=0:00:29.44    \nframe=  103 fps=3.4 q=45.0 size=       0KiB time=00:00:00.85 bitrate=   4.5kbits/s speed=0.0281x elapsed=0:00:30.24    \nframe=  105 fps=3.4 q=45.0 size=       0KiB time=00:00:00.87 bitrate=   4.4kbits/s speed=0.0282x elapsed=0:00:30.97    \nframe=  109 fps=3.4 q=46.0 size=       0KiB time=00:00:00.90 bitrate=   4.3kbits/s speed=0.0285x elapsed=0:00:31.60    \nframe=  112 fps=3.5 q=48.0 size=       0KiB time=00:00:00.93 bitrate=   4.1kbits/s speed=0.0289x elapsed=0:00:32.29    \nframe=  115 fps=3.5 q=49.0 size=       0KiB time=00:00:00.95 bitrate=   4.0kbits/s speed=0.0291x elapsed=0:00:32.89    \nframe=  118 fps=3.5 q=49.0 size=       0KiB time=00:00:00.98 bitrate=   3.9kbits/s speed=0.0293x elapsed=0:00:33.54    \nframe=  121 fps=3.5 q=44.0 size=       0KiB time=00:00:01.00 bitrate=   3.8kbits/s speed=0.0295x elapsed=0:00:34.14    \nframe=  124 fps=3.6 q=49.0 size=       0KiB time=00:00:01.03 bitrate=   3.7kbits/s speed=0.0298x elapsed=0:00:34.73    \nframe=  128 fps=3.6 q=51.0 size=       0KiB time=00:00:01.05 bitrate=   3.6kbits/s speed=0.03x elapsed=0:00:35.29    \nframe=  130 fps=3.6 q=45.0 size=     256KiB time=00:00:01.08 bitrate=1935.8kbits/s speed=0.0301x elapsed=0:00:35.95    \nframe=  134 fps=3.7 q=46.0 size=     256KiB time=00:00:01.10 bitrate=1892.2kbits/s speed=0.0303x elapsed=0:00:36.56    \nframe=  138 fps=3.7 q=48.0 size=     256KiB time=00:00:01.14 bitrate=1836.9kbits/s speed=0.0307x elapsed=0:00:37.16    \nframe=  141 fps=3.7 q=46.0 size=     256KiB time=00:00:01.17 bitrate=1784.8kbits/s speed=0.0311x elapsed=0:00:37.81    \nframe=  143 fps=3.7 q=45.0 size=     256KiB time=00:00:01.19 bitrate=1759.8kbits/s speed=0.031x elapsed=0:00:38.39    \nframe=  147 fps=3.8 q=46.0 size=     256KiB time=00:00:01.21 bitrate=1723.7kbits/s speed=0.0312x elapsed=0:00:38.96    \nframe=  150 fps=3.8 q=49.0 size=     256KiB time=00:00:01.25 bitrate=1677.7kbits/s speed=0.0315x elapsed=0:00:39.62    \nframe=  153 fps=3.8 q=48.0 size=     256KiB time=00:00:01.27 bitrate=1644.8kbits/s speed=0.0317x elapsed=0:00:40.28    \nframe=  157 fps=3.8 q=48.0 size=     256KiB time=00:00:01.30 bitrate=1613.2kbits/s speed=0.0317x elapsed=0:00:40.96    \nframe=  158 fps=3.8 q=52.0 size=     256KiB time=00:00:01.31 bitrate=1592.8kbits/s speed=0.0316x elapsed=0:00:41.63    \nframe=  161 fps=3.8 q=44.0 size=     256KiB time=00:00:01.34 bitrate=1563.1kbits/s speed=0.0318x elapsed=0:00:42.17    \nframe=  163 fps=3.8 q=46.0 size=     256KiB time=00:00:01.35 bitrate=1543.9kbits/s speed=0.0318x elapsed=0:00:42.72    \nframe=  165 fps=3.8 q=47.0 size=     256KiB time=00:00:01.37 bitrate=1525.2kbits/s speed=0.0318x elapsed=0:00:43.26    \nframe=  166 fps=3.8 q=49.0 size=     256KiB time=00:00:01.38 bitrate=1516.0kbits/s speed=0.0316x elapsed=0:00:43.80    \nframe=  168 fps=3.8 q=50.0 size=     256KiB time=00:00:01.40 bitrate=1498.0kbits/s speed=0.0316x elapsed=0:00:44.33    \nframe=  170 fps=3.8 q=52.0 size=     256KiB time=00:00:01.41 bitrate=1480.3kbits/s speed=0.0316x elapsed=0:00:44.86    \nframe=  172 fps=3.8 q=52.0 size=     256KiB time=00:00:01.43 bitrate=1463.1kbits/s speed=0.0316x elapsed=0:00:45.38    \nframe=  173 fps=3.8 q=47.0 size=     256KiB time=00:00:01.44 bitrate=1454.7kbits/s speed=0.0314x elapsed=0:00:45.90    \nframe=  174 fps=3.7 q=39.0 size=     256KiB time=00:00:01.45 bitrate=1446.3kbits/s speed=0.0312x elapsed=0:00:46.49    \nframe=  176 fps=3.7 q=42.0 size=     256KiB time=00:00:01.46 bitrate=1429.9kbits/s speed=0.0312x elapsed=0:00:47.02    \nframe=  178 fps=3.7 q=43.0 size=     256KiB time=00:00:01.48 bitrate=1413.8kbits/s speed=0.0312x elapsed=0:00:47.54    \nframe=  179 fps=3.7 q=48.0 size=     256KiB time=00:00:01.49 bitrate=1405.9kbits/s speed=0.031x elapsed=0:00:48.08    \nframe=  181 fps=3.7 q=49.0 size=     256KiB time=00:00:01.50 bitrate=1390.4kbits/s speed=0.031x elapsed=0:00:48.59    \nframe=  183 fps=3.7 q=48.0 size=     256KiB time=00:00:01.52 bitrate=1375.2kbits/s speed=0.0311x elapsed=0:00:49.11    \nframe=  185 fps=3.7 q=49.0 size=     256KiB time=00:00:01.54 bitrate=1360.3kbits/s speed=0.0311x elapsed=0:00:49.64    \nframe=  187 fps=3.7 q=51.0 size=     256KiB time=00:00:01.55 bitrate=1345.8kbits/s speed=0.031x elapsed=0:00:50.20    \nframe=  188 fps=3.7 q=45.0 size=     256KiB time=00:00:01.56 bitrate=1338.6kbits/s speed=0.0309x elapsed=0:00:50.73    \nframe=  189 fps=3.7 q=37.0 size=     256KiB time=00:00:01.57 bitrate=1331.5kbits/s speed=0.0307x elapsed=0:00:51.28    \nframe=  190 fps=3.7 q=50.0 size=     256KiB time=00:00:01.58 bitrate=1324.5kbits/s speed=0.0306x elapsed=0:00:51.81    \nframe=  192 fps=3.7 q=45.0 size=     256KiB time=00:00:01.60 bitrate=1310.7kbits/s speed=0.0306x elapsed=0:00:52.34    \nframe=  193 fps=3.6 q=45.0 size=     256KiB time=00:00:01.60 bitrate=1303.9kbits/s speed=0.0304x elapsed=0:00:52.88    \nframe=  195 fps=3.7 q=46.0 size=     256KiB time=00:00:01.62 bitrate=1290.6kbits/s speed=0.0304x elapsed=0:00:53.41    \nframe=  197 fps=3.7 q=47.0 size=     256KiB time=00:00:01.64 bitrate=1277.5kbits/s speed=0.0304x elapsed=0:00:53.93    \nframe=  199 fps=3.7 q=47.0 size=     256KiB time=00:00:01.65 bitrate=1264.6kbits/s speed=0.0305x elapsed=0:00:54.45    \nframe=  200 fps=3.6 q=49.0 size=     256KiB time=00:00:01.66 bitrate=1258.3kbits/s speed=0.0303x elapsed=0:00:54.99    \nframe=  202 fps=3.6 q=50.0 size=     256KiB time=00:00:01.68 bitrate=1245.8kbits/s speed=0.0303x elapsed=0:00:55.51    \nframe=  203 fps=3.6 q=47.0 size=     256KiB time=00:00:01.69 bitrate=1239.7kbits/s speed=0.0302x elapsed=0:00:56.05    \nframe=  205 fps=3.6 q=50.0 size=     256KiB time=00:00:01.70 bitrate=1227.6kbits/s speed=0.0302x elapsed=0:00:56.58    \nframe=  207 fps=3.6 q=45.0 size=     256KiB time=00:00:01.72 bitrate=1215.7kbits/s speed=0.0302x elapsed=0:00:57.12    \nframe=  208 fps=3.6 q=45.0 size=     256KiB time=00:00:01.73 bitrate=1209.9kbits/s speed=0.0301x elapsed=0:00:57.67    \nframe=  210 fps=3.6 q=45.0 size=     256KiB time=00:00:01.75 bitrate=1198.4kbits/s speed=0.0301x elapsed=0:00:58.20    \nframe=  212 fps=3.6 q=45.0 size=     256KiB time=00:00:01.76 bitrate=1187.1kbits/s speed=0.0301x elapsed=0:00:58.74    \nframe=  214 fps=3.6 q=45.0 size=     256KiB time=00:00:01.78 bitrate=1176.0kbits/s speed=0.0301x elapsed=0:00:59.27    \nframe=  215 fps=3.6 q=49.0 size=     256KiB time=00:00:01.79 bitrate=1170.5kbits/s speed=0.03x elapsed=0:00:59.78    \nframe=  217 fps=3.6 q=49.0 size=     256KiB time=00:00:01.80 bitrate=1159.7kbits/s speed=0.03x elapsed=0:01:00.31    \nframe=  218 fps=3.6 q=44.0 size=     256KiB time=00:00:01.81 bitrate=1154.4kbits/s speed=0.0299x elapsed=0:01:00.85    \nframe=  219 fps=3.6 q=36.0 size=     256KiB time=00:00:01.82 bitrate=1149.1kbits/s speed=0.0297x elapsed=0:01:01.38    \nframe=  221 fps=3.6 q=43.0 size=     256KiB time=00:00:01.84 bitrate=1138.7kbits/s speed=0.0297x elapsed=0:01:01.92    \nframe=  223 fps=3.6 q=44.0 size=     256KiB time=00:00:01.85 bitrate=1128.5kbits/s speed=0.0297x elapsed=0:01:02.47    \nframe=  225 fps=3.6 q=45.0 size=     256KiB time=00:00:01.87 bitrate=1118.5kbits/s speed=0.0298x elapsed=0:01:03.01    \nframe=  226 fps=3.6 q=47.0 size=     256KiB time=00:00:01.88 bitrate=1113.5kbits/s speed=0.0296x elapsed=0:01:03.55    \nframe=  228 fps=3.6 q=48.0 size=     256KiB time=00:00:01.90 bitrate=1103.8kbits/s speed=0.0296x elapsed=0:01:04.08    \nframe=  230 fps=3.6 q=49.0 size=     256KiB time=00:00:01.91 bitrate=1094.2kbits/s speed=0.0297x elapsed=0:01:04.61    \nframe=  232 fps=3.6 q=51.0 size=     256KiB time=00:00:01.93 bitrate=1084.7kbits/s speed=0.0297x elapsed=0:01:05.15    \nframe=  233 fps=3.5 q=44.0 size=     256KiB time=00:00:01.94 bitrate=1080.1kbits/s speed=0.0296x elapsed=0:01:05.69    \nframe=  235 fps=3.5 q=50.0 size=     256KiB time=00:00:01.95 bitrate=1070.9kbits/s speed=0.0296x elapsed=0:01:06.23    \nframe=  236 fps=3.5 q=44.0 size=     256KiB time=00:00:01.96 bitrate=1066.3kbits/s speed=0.0295x elapsed=0:01:06.76    \nframe=  238 fps=3.5 q=45.0 size=     256KiB time=00:00:01.98 bitrate=1057.4kbits/s speed=0.0295x elapsed=0:01:07.29    \nframe=  239 fps=3.5 q=46.0 size=     256KiB time=00:00:01.99 bitrate=1053.0kbits/s speed=0.0294x elapsed=0:01:07.84    \nframe=  241 fps=3.5 q=47.0 size=     256KiB time=00:00:02.00 bitrate=1044.2kbits/s speed=0.0294x elapsed=0:01:08.37    \nframe=  243 fps=3.5 q=49.0 size=     256KiB time=00:00:02.02 bitrate=1035.6kbits/s speed=0.0294x elapsed=0:01:08.92    \nframe=  244 fps=3.5 q=46.0 size=     256KiB time=00:00:02.03 bitrate=1031.4kbits/s speed=0.0293x elapsed=0:01:09.46    \nframe=  245 fps=3.5 q=38.0 size=     256KiB time=00:00:02.04 bitrate=1027.2kbits/s speed=0.0292x elapsed=0:01:10.01    \nframe=  247 fps=3.5 q=43.0 size=     256KiB time=00:00:02.05 bitrate=1018.9kbits/s speed=0.0292x elapsed=0:01:10.54    \nframe=  249 fps=3.5 q=44.0 size=     256KiB time=00:00:02.07 bitrate=1010.7kbits/s speed=0.0292x elapsed=0:01:11.07    \nframe=  250 fps=3.5 q=47.0 size=     256KiB time=00:00:02.08 bitrate=1006.6kbits/s speed=0.0291x elapsed=0:01:11.59    \nframe=  252 fps=3.5 q=48.0 size=     256KiB time=00:00:02.10 bitrate= 998.6kbits/s speed=0.0291x elapsed=0:01:12.11    \nframe=  254 fps=3.5 q=49.0 size=     256KiB time=00:00:02.11 bitrate= 990.8kbits/s speed=0.0291x elapsed=0:01:12.64    \nframe=  256 fps=3.5 q=50.0 size=     256KiB time=00:00:02.13 bitrate= 983.0kbits/s speed=0.0291x elapsed=0:01:13.18    \nframe=  257 fps=3.5 q=36.0 size=     256KiB time=00:00:02.14 bitrate= 979.2kbits/s speed=0.0291x elapsed=0:01:13.71    \nframe=  260 fps=3.5 q=45.0 size=     512KiB time=00:00:02.16 bitrate=1935.8kbits/s speed=0.0292x elapsed=0:01:14.25    \nframe=  261 fps=3.5 q=46.0 size=     512KiB time=00:00:02.17 bitrate=1928.4kbits/s speed=0.0291x elapsed=0:01:14.77    \nframe=  263 fps=3.5 q=47.0 size=     512KiB time=00:00:02.19 bitrate=1913.8kbits/s speed=0.0291x elapsed=0:01:15.31    \nframe=  265 fps=3.5 q=48.0 size=     512KiB time=00:00:02.20 bitrate=1899.3kbits/s speed=0.0291x elapsed=0:01:15.84    \nframe=  267 fps=3.5 q=47.0 size=     512KiB time=00:00:02.22 bitrate=1885.1kbits/s speed=0.0291x elapsed=0:01:16.39    \nframe=  269 fps=3.5 q=49.0 size=     512KiB time=00:00:02.24 bitrate=1871.1kbits/s speed=0.0291x elapsed=0:01:16.93    \nframe=  270 fps=3.5 q=47.0 size=     512KiB time=00:00:02.25 bitrate=1864.1kbits/s speed=0.029x elapsed=0:01:17.47    \nframe=  272 fps=3.5 q=50.0 size=     512KiB time=00:00:02.26 bitrate=1850.4kbits/s speed=0.0291x elapsed=0:01:18.01    \nframe=  274 fps=3.5 q=46.0 size=     512KiB time=00:00:02.28 bitrate=1836.9kbits/s speed=0.0291x elapsed=0:01:18.55    \nframe=  275 fps=3.5 q=46.0 size=     512KiB time=00:00:02.29 bitrate=1830.2kbits/s speed=0.029x elapsed=0:01:19.09    \nframe=  277 fps=3.5 q=48.0 size=     512KiB time=00:00:02.30 bitrate=1817.0kbits/s speed=0.029x elapsed=0:01:19.63    \nframe=  278 fps=3.5 q=40.0 size=     512KiB time=00:00:02.31 bitrate=1810.5kbits/s speed=0.0289x elapsed=0:01:20.18    \nframe=  280 fps=3.5 q=44.0 size=     512KiB time=00:00:02.33 bitrate=1797.6kbits/s speed=0.0289x elapsed=0:01:20.71    \nframe=  282 fps=3.5 q=46.0 size=     512KiB time=00:00:02.35 bitrate=1784.8kbits/s speed=0.0289x elapsed=0:01:21.23    \nframe=  284 fps=3.5 q=47.0 size=     512KiB time=00:00:02.35 bitrate=1778.5kbits/s speed=0.0288x elapsed=0:01:21.75    \nframe=  284 fps=3.5 q=47.0 size=     512KiB time=00:00:02.36 bitrate=1772.2kbits/s speed=0.0288x elapsed=0:01:22.27    \nframe=  286 fps=3.5 q=50.0 size=     512KiB time=00:00:02.38 bitrate=1759.8kbits/s speed=0.0288x elapsed=0:01:22.82    \nframe=  288 fps=3.5 q=47.0 size=     512KiB time=00:00:02.40 bitrate=1747.6kbits/s speed=0.0288x elapsed=0:01:23.34    \nframe=  290 fps=3.5 q=48.0 size=     512KiB time=00:00:02.41 bitrate=1735.6kbits/s speed=0.0288x elapsed=0:01:23.88    \nframe=  291 fps=3.4 q=47.0 size=     512KiB time=00:00:02.42 bitrate=1729.6kbits/s speed=0.0287x elapsed=0:01:24.42    \nframe=  293 fps=3.4 q=50.0 size=     512KiB time=00:00:02.44 bitrate=1717.8kbits/s speed=0.0287x elapsed=0:01:24.96    \nframe=  295 fps=3.5 q=47.0 size=     512KiB time=00:00:02.45 bitrate=1706.2kbits/s speed=0.0288x elapsed=0:01:25.48    \nframe=  297 fps=3.5 q=49.0 size=     512KiB time=00:00:02.47 bitrate=1694.7kbits/s speed=0.0288x elapsed=0:01:26.01    \nframe=  298 fps=3.4 q=47.0 size=     512KiB time=00:00:02.48 bitrate=1689.0kbits/s speed=0.0287x elapsed=0:01:26.55    \nframe=  300 fps=3.4 q=50.0 size=     512KiB time=00:00:02.50 bitrate=1677.7kbits/s speed=0.0287x elapsed=0:01:27.08    \nframe=  302 fps=3.4 q=47.0 size=     512KiB time=00:00:02.51 bitrate=1666.6kbits/s speed=0.0287x elapsed=0:01:27.63    \nframe=  304 fps=3.4 q=49.0 size=     512KiB time=00:00:02.53 bitrate=1655.6kbits/s speed=0.0287x elapsed=0:01:28.18    \nframe=  305 fps=3.4 q=47.0 size=     512KiB time=00:00:02.54 bitrate=1650.2kbits/s speed=0.0286x elapsed=0:01:28.73    \nframe=  307 fps=3.4 q=50.0 size=     512KiB time=00:00:02.55 bitrate=1639.5kbits/s speed=0.0287x elapsed=0:01:29.26    \nframe=  308 fps=3.4 q=45.0 size=     512KiB time=00:00:02.56 bitrate=1634.1kbits/s speed=0.0286x elapsed=0:01:29.78    \nframe=  310 fps=3.4 q=46.0 size=     512KiB time=00:00:02.58 bitrate=1623.6kbits/s speed=0.0286x elapsed=0:01:30.31    \nframe=  312 fps=3.4 q=48.0 size=     512KiB time=00:00:02.60 bitrate=1613.2kbits/s speed=0.0286x elapsed=0:01:30.84    \nframe=  314 fps=3.4 q=49.0 size=     512KiB time=00:00:02.61 bitrate=1602.9kbits/s speed=0.0286x elapsed=0:01:31.39    \nframe=  316 fps=3.4 q=47.0 size=     512KiB time=00:00:02.63 bitrate=1592.8kbits/s speed=0.0286x elapsed=0:01:31.92    \nframe=  317 fps=3.4 q=47.0 size=     512KiB time=00:00:02.64 bitrate=1587.7kbits/s speed=0.0286x elapsed=0:01:32.43    \nframe=  319 fps=3.4 q=48.0 size=     512KiB time=00:00:02.65 bitrate=1577.8kbits/s speed=0.0286x elapsed=0:01:32.95    \nframe=  320 fps=3.4 q=40.0 size=     512KiB time=00:00:02.66 bitrate=1572.9kbits/s speed=0.0285x elapsed=0:01:33.49    \nframe=  322 fps=3.4 q=45.0 size=     512KiB time=00:00:02.68 bitrate=1563.1kbits/s speed=0.0285x elapsed=0:01:34.02    \nframe=  323 fps=3.4 q=47.0 size=     512KiB time=00:00:02.69 bitrate=1558.3kbits/s speed=0.0285x elapsed=0:01:34.54    \nframe=  325 fps=3.4 q=49.0 size=     512KiB time=00:00:02.70 bitrate=1548.7kbits/s speed=0.0285x elapsed=0:01:35.07    \nframe=  326 fps=3.4 q=47.0 size=     512KiB time=00:00:02.71 bitrate=1543.9kbits/s speed=0.0284x elapsed=0:01:35.60    \nframe=  329 fps=3.4 q=45.0 size=     512KiB time=00:00:02.74 bitrate=1529.8kbits/s speed=0.0285x elapsed=0:01:36.14    \nframe=  330 fps=3.4 q=47.0 size=     512KiB time=00:00:02.75 bitrate=1525.2kbits/s speed=0.0284x elapsed=0:01:36.68    \nframe=  332 fps=3.4 q=49.0 size=     512KiB time=00:00:02.76 bitrate=1516.0kbits/s speed=0.0285x elapsed=0:01:37.20    \nframe=  333 fps=3.4 q=47.0 size=     512KiB time=00:00:02.77 bitrate=1511.5kbits/s speed=0.0284x elapsed=0:01:37.74    \nframe=  335 fps=3.4 q=50.0 size=     512KiB time=00:00:02.79 bitrate=1502.4kbits/s speed=0.0284x elapsed=0:01:38.27    \nframe=  337 fps=3.4 q=47.0 size=     512KiB time=00:00:02.80 bitrate=1493.5kbits/s speed=0.0284x elapsed=0:01:38.80    \nframe=  339 fps=3.4 q=48.0 size=     512KiB time=00:00:02.82 bitrate=1484.7kbits/s speed=0.0284x elapsed=0:01:39.32    \nframe=  340 fps=3.4 q=48.0 size=     512KiB time=00:00:02.83 bitrate=1480.3kbits/s speed=0.0284x elapsed=0:01:39.87    \nframe=  342 fps=3.4 q=49.0 size=     512KiB time=00:00:02.85 bitrate=1471.7kbits/s speed=0.0284x elapsed=0:01:40.40    \nframe=  344 fps=3.4 q=47.0 size=     512KiB time=00:00:02.86 bitrate=1463.1kbits/s speed=0.0284x elapsed=0:01:40.93    \nframe=  346 fps=3.4 q=48.0 size=     512KiB time=00:00:02.88 bitrate=1454.7kbits/s speed=0.0284x elapsed=0:01:41.47    \nframe=  347 fps=3.4 q=47.0 size=     512KiB time=00:00:02.89 bitrate=1450.5kbits/s speed=0.0283x elapsed=0:01:42.02    \nframe=  349 fps=3.4 q=49.0 size=     512KiB time=00:00:02.90 bitrate=1442.2kbits/s speed=0.0284x elapsed=0:01:42.56    \nframe=  351 fps=3.4 q=47.0 size=     512KiB time=00:00:02.92 bitrate=1434.0kbits/s speed=0.0284x elapsed=0:01:43.08    \nframe=  353 fps=3.4 q=48.0 size=     512KiB time=00:00:02.94 bitrate=1425.8kbits/s speed=0.0284x elapsed=0:01:43.61    \nframe=  354 fps=3.4 q=48.0 size=     512KiB time=00:00:02.95 bitrate=1421.8kbits/s speed=0.0283x elapsed=0:01:44.13    \nframe=  356 fps=3.4 q=49.0 size=     512KiB time=00:00:02.96 bitrate=1413.8kbits/s speed=0.0283x elapsed=0:01:44.68    \nframe=  358 fps=3.4 q=47.0 size=     512KiB time=00:00:02.98 bitrate=1405.9kbits/s speed=0.0284x elapsed=0:01:45.20    \nframe=  360 fps=3.4 q=48.0 size=     512KiB time=00:00:02.99 bitrate=1402.0kbits/s speed=0.0283x elapsed=0:01:45.73    \nframe=  361 fps=3.4 q=47.0 size=     512KiB time=00:00:03.00 bitrate=1394.2kbits/s speed=0.0283x elapsed=0:01:46.26    \nframe=  363 fps=3.4 q=49.0 size=     512KiB time=00:00:03.02 bitrate=1386.5kbits/s speed=0.0283x elapsed=0:01:46.81    \nframe=  365 fps=3.4 q=47.0 size=     512KiB time=00:00:03.03 bitrate=1382.7kbits/s speed=0.0283x elapsed=0:01:47.34    \nframe=  366 fps=3.4 q=46.0 size=     512KiB time=00:00:03.05 bitrate=1375.2kbits/s speed=0.0283x elapsed=0:01:47.87    \nframe=  368 fps=3.4 q=47.0 size=     512KiB time=00:00:03.06 bitrate=1367.7kbits/s speed=0.0283x elapsed=0:01:48.39    \nframe=  370 fps=3.4 q=50.0 size=     512KiB time=00:00:03.08 bitrate=1360.3kbits/s speed=0.0283x elapsed=0:01:48.92    \nframe=  372 fps=3.4 q=47.0 size=     512KiB time=00:00:03.10 bitrate=1353.0kbits/s speed=0.0283x elapsed=0:01:49.46    \nframe=  373 fps=3.4 q=46.0 size=     512KiB time=00:00:03.10 bitrate=1349.4kbits/s speed=0.0283x elapsed=0:01:49.98    \nframe=  375 fps=3.4 q=46.0 size=     512KiB time=00:00:03.12 bitrate=1342.2kbits/s speed=0.0283x elapsed=0:01:50.50    \nframe=  376 fps=3.4 q=39.0 size=     512KiB time=00:00:03.13 bitrate=1338.6kbits/s speed=0.0282x elapsed=0:01:51.03    \nframe=  378 fps=3.4 q=43.0 size=     512KiB time=00:00:03.15 bitrate=1331.5kbits/s speed=0.0282x elapsed=0:01:51.55    \nframe=  380 fps=3.4 q=45.0 size=     512KiB time=00:00:03.16 bitrate=1324.5kbits/s speed=0.0283x elapsed=0:01:52.07    \nframe=  382 fps=3.4 q=46.0 size=     512KiB time=00:00:03.18 bitrate=1317.6kbits/s speed=0.0283x elapsed=0:01:52.61    \nframe=  384 fps=3.4 q=47.0 size=     512KiB time=00:00:03.20 bitrate=1310.7kbits/s speed=0.0283x elapsed=0:01:53.15    \nframe=  385 fps=3.4 q=39.0 size=     512KiB time=00:00:03.20 bitrate=1307.3kbits/s speed=0.0282x elapsed=0:01:53.69    \nframe=  387 fps=3.4 q=45.0 size=     768KiB time=00:00:03.22 bitrate=1950.8kbits/s speed=0.0282x elapsed=0:01:54.21    \nframe=  389 fps=3.4 q=46.0 size=     768KiB time=00:00:03.24 bitrate=1940.8kbits/s speed=0.0283x elapsed=0:01:54.73    \nframe=  391 fps=3.4 q=47.0 size=     768KiB time=00:00:03.25 bitrate=1930.9kbits/s speed=0.0283x elapsed=0:01:55.26    \nframe=  393 fps=3.4 q=49.0 size=     768KiB time=00:00:03.27 bitrate=1921.1kbits/s speed=0.0283x elapsed=0:01:55.80    \nframe=  394 fps=3.4 q=45.0 size=     768KiB time=00:00:03.28 bitrate=1916.2kbits/s speed=0.0282x elapsed=0:01:56.34    \nframe=  396 fps=3.4 q=46.0 size=     768KiB time=00:00:03.30 bitrate=1906.5kbits/s speed=0.0282x elapsed=0:01:56.88    \nframe=  398 fps=3.4 q=48.0 size=     768KiB time=00:00:03.31 bitrate=1896.9kbits/s speed=0.0282x elapsed=0:01:57.41    \nframe=  400 fps=3.4 q=46.0 size=     768KiB time=00:00:03.33 bitrate=1887.4kbits/s speed=0.0283x elapsed=0:01:57.95    \nframe=  402 fps=3.4 q=46.0 size=     768KiB time=00:00:03.35 bitrate=1878.0kbits/s speed=0.0283x elapsed=0:01:58.47    \nframe=  403 fps=3.4 q=44.0 size=     768KiB time=00:00:03.35 bitrate=1873.4kbits/s speed=0.0282x elapsed=0:01:59.01    \nframe=  405 fps=3.4 q=45.0 size=     768KiB time=00:00:03.37 bitrate=1864.1kbits/s speed=0.0282x elapsed=0:01:59.54    \nframe=  407 fps=3.4 q=44.0 size=     768KiB time=00:00:03.39 bitrate=1855.0kbits/s speed=0.0282x elapsed=0:02:00.06    \nframe=  409 fps=3.4 q=44.0 size=     768KiB time=00:00:03.40 bitrate=1845.9kbits/s speed=0.0283x elapsed=0:02:00.60    \nframe=  410 fps=3.4 q=49.0 size=     768KiB time=00:00:03.41 bitrate=1841.4kbits/s speed=0.0282x elapsed=0:02:01.12    \nframe=  412 fps=3.4 q=50.0 size=     768KiB time=00:00:03.43 bitrate=1832.5kbits/s speed=0.0282x elapsed=0:02:01.64    \nframe=  413 fps=3.4 q=44.0 size=     768KiB time=00:00:03.44 bitrate=1828.0kbits/s speed=0.0282x elapsed=0:02:02.17    \nframe=  415 fps=3.4 q=49.0 size=     768KiB time=00:00:03.45 bitrate=1819.2kbits/s speed=0.0282x elapsed=0:02:02.69    \nframe=  417 fps=3.4 q=45.0 size=     768KiB time=00:00:03.47 bitrate=1810.5kbits/s speed=0.0282x elapsed=0:02:03.22    \nframe=  419 fps=3.4 q=46.0 size=     768KiB time=00:00:03.49 bitrate=1801.8kbits/s speed=0.0282x elapsed=0:02:03.74    \nframe=  421 fps=3.4 q=48.0 size=     768KiB time=00:00:03.50 bitrate=1793.3kbits/s speed=0.0282x elapsed=0:02:04.28    \nframe=  423 fps=3.4 q=48.0 size=     768KiB time=00:00:03.52 bitrate=1784.8kbits/s speed=0.0282x elapsed=0:02:04.81    \nframe=  425 fps=3.4 q=49.0 size=     768KiB time=00:00:03.54 bitrate=1776.4kbits/s speed=0.0283x elapsed=0:02:05.34    \nframe=  426 fps=3.4 q=45.0 size=     768KiB time=00:00:03.55 bitrate=1772.2kbits/s speed=0.0282x elapsed=0:02:05.85    \nframe=  428 fps=3.4 q=45.0 size=     768KiB time=00:00:03.56 bitrate=1764.0kbits/s speed=0.0282x elapsed=0:02:06.38    \nframe=  430 fps=3.4 q=53.0 size=     768KiB time=00:00:03.58 bitrate=1755.8kbits/s speed=0.0282x elapsed=0:02:06.92    \nframe=  432 fps=3.4 q=46.0 size=     768KiB time=00:00:03.60 bitrate=1747.6kbits/s speed=0.0282x elapsed=0:02:07.45    \nframe=  434 fps=3.4 q=48.0 size=     768KiB time=00:00:03.61 bitrate=1739.6kbits/s speed=0.0283x elapsed=0:02:07.99    \nframe=  435 fps=3.4 q=47.0 size=     768KiB time=00:00:03.62 bitrate=1735.6kbits/s speed=0.0282x elapsed=0:02:08.51    \nframe=  437 fps=3.4 q=47.0 size=     768KiB time=00:00:03.64 bitrate=1727.6kbits/s speed=0.0282x elapsed=0:02:09.05    \nframe=  439 fps=3.4 q=46.0 size=     768KiB time=00:00:03.65 bitrate=1719.8kbits/s speed=0.0282x elapsed=0:02:09.59    \nframe=  441 fps=3.4 q=48.0 size=     768KiB time=00:00:03.67 bitrate=1712.0kbits/s speed=0.0282x elapsed=0:02:10.14    \nframe=  442 fps=3.4 q=44.0 size=     768KiB time=00:00:03.68 bitrate=1708.1kbits/s speed=0.0282x elapsed=0:02:10.68    \nframe=  444 fps=3.4 q=45.0 size=     768KiB time=00:00:03.70 bitrate=1700.4kbits/s speed=0.0282x elapsed=0:02:11.21    \nframe=  446 fps=3.4 q=44.0 size=     768KiB time=00:00:03.71 bitrate=1692.8kbits/s speed=0.0282x elapsed=0:02:11.74    \nframe=  448 fps=3.4 q=45.0 size=     768KiB time=00:00:03.73 bitrate=1685.2kbits/s speed=0.0282x elapsed=0:02:12.27    \nframe=  449 fps=3.4 q=49.0 size=     768KiB time=00:00:03.74 bitrate=1681.5kbits/s speed=0.0282x elapsed=0:02:12.81    \nframe=  450 fps=3.4 q=45.0 size=     768KiB time=00:00:03.75 bitrate=1677.7kbits/s speed=0.0281x elapsed=0:02:13.35    \nframe=  452 fps=3.4 q=50.0 size=     768KiB time=00:00:03.76 bitrate=1670.3kbits/s speed=0.0281x elapsed=0:02:13.88    \nframe=  454 fps=3.4 q=45.0 size=     768KiB time=00:00:03.78 bitrate=1662.9kbits/s speed=0.0281x elapsed=0:02:14.40    \nframe=  456 fps=3.4 q=46.0 size=     768KiB time=00:00:03.80 bitrate=1655.6kbits/s speed=0.0282x elapsed=0:02:14.93    \nframe=  458 fps=3.4 q=47.0 size=     768KiB time=00:00:03.81 bitrate=1648.4kbits/s speed=0.0282x elapsed=0:02:15.47    \nframe=  460 fps=3.4 q=49.0 size=     768KiB time=00:00:03.82 bitrate=1644.8kbits/s speed=0.0281x elapsed=0:02:16.00    \nframe=  461 fps=3.4 q=46.0 size=     768KiB time=00:00:03.84 bitrate=1637.7kbits/s speed=0.0281x elapsed=0:02:16.51    \nframe=  463 fps=3.4 q=46.0 size=     768KiB time=00:00:03.85 bitrate=1630.6kbits/s speed=0.0282x elapsed=0:02:17.03    \nframe=  465 fps=3.4 q=45.0 size=     768KiB time=00:00:03.87 bitrate=1623.6kbits/s speed=0.0282x elapsed=0:02:17.55    \nframe=  466 fps=3.4 q=37.0 size=     768KiB time=00:00:03.88 bitrate=1620.1kbits/s speed=0.0281x elapsed=0:02:18.09    \nframe=  468 fps=3.4 q=43.0 size=     768KiB time=00:00:03.90 bitrate=1613.2kbits/s speed=0.0281x elapsed=0:02:18.62    \nframe=  470 fps=3.4 q=44.0 size=     768KiB time=00:00:03.91 bitrate=1606.3kbits/s speed=0.0281x elapsed=0:02:19.15    \nframe=  472 fps=3.4 q=45.0 size=     768KiB time=00:00:03.93 bitrate=1599.5kbits/s speed=0.0282x elapsed=0:02:19.69    \nframe=  474 fps=3.4 q=46.0 size=     768KiB time=00:00:03.95 bitrate=1592.8kbits/s speed=0.0282x elapsed=0:02:20.24    \nframe=  476 fps=3.4 q=45.0 size=     768KiB time=00:00:03.95 bitrate=1589.4kbits/s speed=0.0281x elapsed=0:02:20.76    \nframe=  477 fps=3.4 q=49.0 size=     768KiB time=00:00:03.97 bitrate=1582.8kbits/s speed=0.0281x elapsed=0:02:21.29    \nframe=  479 fps=3.4 q=51.0 size=     768KiB time=00:00:03.99 bitrate=1576.1kbits/s speed=0.0281x elapsed=0:02:21.83    \nframe=  480 fps=3.4 q=45.0 size=     768KiB time=00:00:04.00 bitrate=1572.9kbits/s speed=0.0281x elapsed=0:02:22.36    \nframe=  482 fps=3.4 q=49.0 size=     768KiB time=00:00:04.01 bitrate=1566.3kbits/s speed=0.0281x elapsed=0:02:22.90    \nframe=  483 fps=3.4 q=43.0 size=     768KiB time=00:00:04.02 bitrate=1563.1kbits/s speed=0.0281x elapsed=0:02:23.44    \nframe=  485 fps=3.4 q=45.0 size=     768KiB time=00:00:04.04 bitrate=1556.6kbits/s speed=0.0281x elapsed=0:02:23.97    \nframe=  487 fps=3.4 q=45.0 size=     768KiB time=00:00:04.05 bitrate=1553.4kbits/s speed=0.028x elapsed=0:02:24.50    \nframe=  488 fps=3.4 q=49.0 size=     768KiB time=00:00:04.06 bitrate=1547.1kbits/s speed=0.028x elapsed=0:02:25.03    \nframe=  490 fps=3.4 q=49.0 size=     768KiB time=00:00:04.08 bitrate=1540.8kbits/s speed=0.028x elapsed=0:02:25.60    \nframe=  492 fps=3.4 q=50.0 size=     768KiB time=00:00:04.10 bitrate=1534.5kbits/s speed=0.0281x elapsed=0:02:26.16    \nframe=  494 fps=3.4 q=50.0 size=     768KiB time=00:00:04.11 bitrate=1528.3kbits/s speed=0.0281x elapsed=0:02:26.70    \nframe=  495 fps=3.4 q=46.0 size=     768KiB time=00:00:04.12 bitrate=1525.2kbits/s speed=0.028x elapsed=0:02:27.23    \nframe=  496 fps=3.4 q=38.0 size=     768KiB time=00:00:04.13 bitrate=1522.1kbits/s speed=0.028x elapsed=0:02:27.78    \nframe=  498 fps=3.4 q=47.0 size=     768KiB time=00:00:04.15 bitrate=1516.0kbits/s speed=0.028x elapsed=0:02:28.31    \nframe=  500 fps=3.4 q=48.0 size=     768KiB time=00:00:04.16 bitrate=1509.9kbits/s speed=0.028x elapsed=0:02:28.84    \nframe=  502 fps=3.4 q=49.0 size=     768KiB time=00:00:04.18 bitrate=1503.9kbits/s speed=0.028x elapsed=0:02:29.36    \nframe=  503 fps=3.4 q=50.0 size=     768KiB time=00:00:04.19 bitrate=1500.9kbits/s speed=0.028x elapsed=0:02:29.90    \nframe=  505 fps=3.4 q=49.0 size=     768KiB time=00:00:04.20 bitrate=1495.0kbits/s speed=0.028x elapsed=0:02:30.43    \nframe=  506 fps=3.4 q=45.0 size=     768KiB time=00:00:04.21 bitrate=1492.0kbits/s speed=0.0279x elapsed=0:02:30.98    \nframe=  508 fps=3.4 q=46.0 size=     768KiB time=00:00:04.23 bitrate=1486.2kbits/s speed=0.0279x elapsed=0:02:31.50    \nframe=  509 fps=3.3 q=51.0 size=     768KiB time=00:00:04.24 bitrate=1483.3kbits/s speed=0.0279x elapsed=0:02:32.05    \nframe=  511 fps=3.3 q=51.0 size=     768KiB time=00:00:04.25 bitrate=1477.4kbits/s speed=0.0279x elapsed=0:02:32.58    \nframe=  512 fps=3.3 q=47.0 size=     768KiB time=00:00:04.26 bitrate=1474.6kbits/s speed=0.0279x elapsed=0:02:33.11    \nframe=  514 fps=3.3 q=50.0 size=    1024KiB time=00:00:04.28 bitrate=1958.4kbits/s speed=0.0279x elapsed=0:02:33.65    \nframe=  516 fps=3.3 q=45.0 size=    1024KiB time=00:00:04.30 bitrate=1950.8kbits/s speed=0.0279x elapsed=0:02:34.18    \nframe=  518 fps=3.3 q=47.0 size=    1024KiB time=00:00:04.31 bitrate=1943.3kbits/s speed=0.0279x elapsed=0:02:34.70    \nframe=  520 fps=3.3 q=48.0 size=    1024KiB time=00:00:04.32 bitrate=1939.6kbits/s speed=0.0279x elapsed=0:02:35.23    \nframe=  522 fps=3.4 q=49.0 size=    1024KiB time=00:00:04.35 bitrate=1928.4kbits/s speed=0.0279x elapsed=0:02:35.76    \nframe=  524 fps=3.4 q=49.0 size=    1024KiB time=00:00:04.36 bitrate=1921.1kbits/s speed=0.0279x elapsed=0:02:36.30    \nframe=  526 fps=3.4 q=50.0 size=    1024KiB time=00:00:04.38 bitrate=1913.8kbits/s speed=0.0279x elapsed=0:02:36.83    \nframe=  527 fps=3.3 q=47.0 size=    1024KiB time=00:00:04.39 bitrate=1910.1kbits/s speed=0.0279x elapsed=0:02:37.38    \nframe=  529 fps=3.3 q=52.0 size=    1024KiB time=00:00:04.40 bitrate=1902.9kbits/s speed=0.0279x elapsed=0:02:37.91    \nframe=  531 fps=3.4 q=47.0 size=    1024KiB time=00:00:04.42 bitrate=1895.7kbits/s speed=0.0279x elapsed=0:02:38.46    \nframe=  533 fps=3.4 q=48.0 size=    1024KiB time=00:00:04.44 bitrate=1888.6kbits/s speed=0.0279x elapsed=0:02:38.98    \nframe=  534 fps=3.3 q=48.0 size=    1024KiB time=00:00:04.45 bitrate=1885.1kbits/s speed=0.0279x elapsed=0:02:39.51    \nframe=  536 fps=3.3 q=50.0 size=    1024KiB time=00:00:04.46 bitrate=1878.0kbits/s speed=0.0279x elapsed=0:02:40.05    \nframe=  538 fps=3.3 q=48.0 size=    1024KiB time=00:00:04.48 bitrate=1871.1kbits/s speed=0.0279x elapsed=0:02:40.59    \nframe=  540 fps=3.4 q=49.0 size=    1024KiB time=00:00:04.50 bitrate=1864.1kbits/s speed=0.0279x elapsed=0:02:41.12    \nframe=  541 fps=3.3 q=47.0 size=    1024KiB time=00:00:04.50 bitrate=1860.7kbits/s speed=0.0279x elapsed=0:02:41.65    \nframe=  543 fps=3.3 q=50.0 size=    1024KiB time=00:00:04.52 bitrate=1853.8kbits/s speed=0.0279x elapsed=0:02:42.18    \nframe=  545 fps=3.3 q=47.0 size=    1024KiB time=00:00:04.54 bitrate=1847.0kbits/s speed=0.0279x elapsed=0:02:42.71    \nframe=  548 fps=3.4 q=48.0 size=    1024KiB time=00:00:04.55 bitrate=1840.3kbits/s speed=0.0279x elapsed=0:02:43.23    \nframe=  549 fps=3.4 q=40.0 size=    1024KiB time=00:00:04.57 bitrate=1833.6kbits/s speed=0.0279x elapsed=0:02:43.76    \nframe=  551 fps=3.4 q=45.0 size=    1024KiB time=00:00:04.59 bitrate=1826.9kbits/s speed=0.0279x elapsed=0:02:44.29    \nframe=  552 fps=3.3 q=47.0 size=    1024KiB time=00:00:04.60 bitrate=1823.6kbits/s speed=0.0279x elapsed=0:02:44.82    \nframe=  554 fps=3.4 q=48.0 size=    1024KiB time=00:00:04.61 bitrate=1817.0kbits/s speed=0.0279x elapsed=0:02:45.34    \nframe=  556 fps=3.4 q=40.0 size=    1024KiB time=00:00:04.63 bitrate=1810.5kbits/s speed=0.0279x elapsed=0:02:45.86    \nframe=  557 fps=3.3 q=50.0 size=    1024KiB time=00:00:04.64 bitrate=1807.2kbits/s speed=0.0279x elapsed=0:02:46.40    \nframe=  559 fps=3.3 q=47.0 size=    1024KiB time=00:00:04.65 bitrate=1800.8kbits/s speed=0.0279x elapsed=0:02:46.94    \nframe=  561 fps=3.3 q=49.0 size=    1024KiB time=00:00:04.67 bitrate=1794.4kbits/s speed=0.0279x elapsed=0:02:47.47    \nframe=  562 fps=3.3 q=48.0 size=    1024KiB time=00:00:04.68 bitrate=1791.2kbits/s speed=0.0279x elapsed=0:02:48.01    \nframe=  564 fps=3.3 q=50.0 size=    1024KiB time=00:00:04.70 bitrate=1784.8kbits/s speed=0.0279x elapsed=0:02:48.55    \nframe=  565 fps=3.3 q=45.0 size=    1024KiB time=00:00:04.70 bitrate=1781.7kbits/s speed=0.0278x elapsed=0:02:49.08    \nframe=  567 fps=3.3 q=47.0 size=    1024KiB time=00:00:04.72 bitrate=1775.4kbits/s speed=0.0279x elapsed=0:02:49.61    \nframe=  569 fps=3.3 q=48.0 size=    1024KiB time=00:00:04.74 bitrate=1769.1kbits/s speed=0.0279x elapsed=0:02:50.14    \nframe=  570 fps=3.3 q=41.0 size=    1024KiB time=00:00:04.75 bitrate=1766.0kbits/s speed=0.0278x elapsed=0:02:50.67    \nframe=  572 fps=3.3 q=46.0 size=    1024KiB time=00:00:04.76 bitrate=1759.8kbits/s speed=0.0278x elapsed=0:02:51.20    \nframe=  574 fps=3.3 q=47.0 size=    1024KiB time=00:00:04.78 bitrate=1753.7kbits/s speed=0.0279x elapsed=0:02:51.73    \nframe=  576 fps=3.3 q=49.0 size=    1024KiB time=00:00:04.80 bitrate=1747.6kbits/s speed=0.0279x elapsed=0:02:52.25    \nframe=  576 fps=3.3 q=49.0 size=    1024KiB time=00:00:04.80 bitrate=1747.6kbits/s speed=0.0278x elapsed=0:02:52.80    \nframe=  576 fps=3.3 q=49.0 size=    1024KiB time=00:00:04.80 bitrate=1747.6kbits/s speed=0.0277x elapsed=0:02:53.33    \nframe=  576 fps=3.3 q=49.0 size=    1024KiB time=00:00:04.80 bitrate=1747.6kbits/s speed=0.0276x elapsed=0:02:53.86    \nframe=  576 fps=3.3 q=49.0 size=    1024KiB time=00:00:04.80 bitrate=1747.6kbits/s speed=0.0275x elapsed=0:02:54.39    \nframe=  576 fps=3.3 q=49.0 size=    1024KiB time=00:00:04.80 bitrate=1747.6kbits/s speed=0.0274x elapsed=0:02:54.94    \nframe=  576 fps=3.3 q=49.0 size=    1024KiB time=00:00:04.80 bitrate=1747.6kbits/s speed=0.0274x elapsed=0:02:55.47    \nframe=  576 fps=3.3 q=49.0 size=    1024KiB time=00:00:04.80 bitrate=1747.6kbits/s speed=0.0273x elapsed=0:02:55.98    \nframe=  576 fps=3.3 q=49.0 size=    1024KiB time=00:00:04.80 bitrate=1747.6kbits/s speed=0.0272x elapsed=0:02:56.52    \nframe=  576 fps=3.3 q=49.0 size=    1024KiB time=00:00:04.80 bitrate=1747.6kbits/s speed=0.0271x elapsed=0:02:57.05    \nframe=  576 fps=3.2 q=49.0 size=    1024KiB time=00:00:04.80 bitrate=1747.6kbits/s speed=0.027x elapsed=0:02:57.57    \nframe=  576 fps=3.2 q=49.0 size=    1024KiB time=00:00:04.80 bitrate=1747.6kbits/s speed=0.027x elapsed=0:02:58.10    \nframe=  576 fps=3.2 q=49.0 size=    1024KiB time=00:00:04.80 bitrate=1747.6kbits/s speed=0.0269x elapsed=0:02:58.63    \nframe=  576 fps=3.2 q=49.0 size=    1024KiB time=00:00:04.80 bitrate=1747.6kbits/s speed=0.0268x elapsed=0:02:59.17    \nframe=  576 fps=3.2 q=49.0 size=    1024KiB time=00:00:04.80 bitrate=1747.6kbits/s speed=0.0267x elapsed=0:02:59.70    \n[out#0/webm @ 000002a155368e00] video:1484KiB audio:0KiB subtitle:0KiB other streams:0KiB global headers:0KiB muxing overhead: 0.318369%\nframe=  600 fps=3.3 q=45.0 Lsize=    1489KiB time=00:00:05.00 bitrate=2439.1kbits/s speed=0.0278x elapsed=0:02:59.97    \n",
  "seconds": 180.87997031211853,
  "probe_out": {}
}